<svg xmlns="http://www.w3.org/2000/svg" viewBox="0 0 1400 900"><defs><linearGradient id="bg" x1="0" y1="0" x2="1" y2="1"><stop stop-color="#15152b"/><stop offset="1" stop-color="#0b0b12"/></linearGradient><linearGradient id="chart" x1="0" x2="1"><stop stop-color="#6366f1"/><stop offset="1" stop-color="#22d3ee"/></linearGradient></defs><rect width="1400" height="900" fill="url(#bg)"/><rect x="92" y="72" width="1216" height="756" rx="26" fill="#1a1b35" stroke="#ffffff" stroke-opacity=".12"/><rect x="92" y="72" width="1216" height="76" rx="26" fill="#222342"/><circle cx="132" cy="110" r="8" fill="#ff7575"/><circle cx="160" cy="110" r="8" fill="#f7c953"/><circle cx="188" cy="110" r="8" fill="#67d48f"/><rect x="240" y="101" width="178" height="18" rx="9" fill="#8890c8" opacity=".55"/><rect x="128" y="182" width="210" height="600" rx="18" fill="#121326"/><text x="165" y="238" fill="#fff" font-family="Arial" font-weight="700" font-size="22">ARC</text><g fill="#8c93bd" font-family="Arial" font-size="16"><text x="165" y="300">Overview</text><text x="165" y="356">Analytics</text><text x="165" y="412">Customers</text><text x="165" y="468">Reports</text></g><rect x="150" y="330" width="160" height="40" rx="10" fill="#6366f1" opacity=".9"/><text x="172" y="356" fill="#fff" font-family="Arial" font-size="16">Analytics</text><rect x="386" y="182" width="876" height="165" rx="18" fill="#292b4d"/><text x="425" y="230" fill="#9ba4d0" font-family="Arial" font-size="17">REVENUE THIS MONTH</text><text x="425" y="292" fill="#fff" font-family="Arial" font-size="42" font-weight="700">$128,430</text><text x="645" y="292" fill="#70e0a0" font-family="Arial" font-size="17">↑ 18.4%</text><rect x="386" y="375" width="540" height="407" rx="18" fill="#292b4d"/><text x="426" y="425" fill="#fff" font-family="Arial" font-size="19">Growth overview</text><path d="M430 690 C490 630 535 655 580 590 S680 610 730 520 S830 535 885 455" fill="none" stroke="url(#chart)" stroke-width="7"/><path d="M430 690 C490 630 535 655 580 590 S680 610 730 520 S830 535 885 455 L885 720 L430 720Z" fill="#6366f1" opacity=".11"/><g stroke="#ffffff" stroke-opacity=".1"><path d="M430 500H875M430 570H875M430 640H875M430 710H875"/></g><rect x="954" y="375" width="308" height="407" rx="18" fill="#6366f1"/><text x="994" y="425" fill="#e8e9ff" font-family="Arial" font-size="17">ACTIVE USERS</text><text x="994" y="492" fill="#fff" font-family="Arial" font-size="47" font-weight="700">24.8k</text><g fill="#aab0ff"><rect x="997" y="570" width="52" height="118" rx="8"/><rect x="1071" y="520" width="52" height="168" rx="8"/><rect x="1145" y="455" width="52" height="233" rx="8"/></g><g fill="#fff" font-family="Arial" font-size="13"><text x="997" y="720">JAN</text><text x="1071" y="720">FEB</text><text x="1145" y="720">MAR</text></g></svg>
