<svg xmlns="http://www.w3.org/2000/svg" viewBox="0 0 1400 900"><defs><linearGradient id="bg" x1="0" y1="0" x2="1" y2="1"><stop stop-color="#26204a"/><stop offset="1" stop-color="#0d1021"/></linearGradient><linearGradient id="violet" x1="0" x2="1"><stop stop-color="#a78bfa"/><stop offset="1" stop-color="#6366f1"/></linearGradient></defs><rect width="1400" height="900" fill="url(#bg)"/><circle cx="240" cy="120" r="260" fill="#818cf8" opacity=".12"/><circle cx="1180" cy="780" r="280" fill="#22d3ee" opacity=".1"/><g transform="translate(180 92) rotate(-7 190 350)"><rect width="380" height="716" rx="48" fill="#10111c" stroke="#b2a9ff" stroke-width="5"/><rect x="18" y="18" width="344" height="680" rx="35" fill="#f4f1ff"/><rect x="125" y="35" width="130" height="24" rx="12" fill="#10111c"/><text x="47" y="112" fill="#4a4773" font-family="Arial" font-size="15">GOOD MORNING</text><text x="47" y="154" fill="#19172e" font-family="Arial" font-size="32" font-weight="700">Find your calm.</text><rect x="47" y="190" width="286" height="150" rx="26" fill="url(#violet)"/><text x="72" y="240" fill="#fff" font-family="Arial" font-size="16">TODAY'S PROGRESS</text><text x="72" y="300" fill="#fff" font-family="Arial" font-size="42" font-weight="700">72%</text><circle cx="289" cy="266" r="43" fill="none" stroke="#fff" stroke-opacity=".25" stroke-width="10"/><path d="M289 223 A43 43 0 1 1 253 289" fill="none" stroke="#fff" stroke-width="10"/><g fill="#2a2749"><rect x="47" y="390" width="286" height="72" rx="20" fill="#fff"/><circle cx="78" cy="426" r="20" fill="#d9d2ff"/><text x="114" y="421" font-family="Arial" font-size="15">Breathing session</text><text x="114" y="444" fill="#88839f" font-family="Arial" font-size="12">10 min · Beginner</text><rect x="47" y="480" width="286" height="72" rx="20" fill="#fff"/><circle cx="78" cy="516" r="20" fill="#b9e7e0"/><text x="114" y="511" font-family="Arial" font-size="15">Evening reflection</text><text x="114" y="534" fill="#88839f" font-family="Arial" font-size="12">5 min · Quiet mind</text></g></g><g transform="translate(820 100) rotate(7 190 350)"><rect width="380" height="716" rx="48" fill="#10111c" stroke="#a9c7ff" stroke-width="5"/><rect x="18" y="18" width="344" height="680" rx="35" fill="#e8f2ff"/><rect x="125" y="35" width="130" height="24" rx="12" fill="#10111c"/><text x="47" y="112" fill="#5d7090" font-family="Arial" font-size="15">EXPLORE</text><text x="47" y="154" fill="#17243d" font-family="Arial" font-size="32" font-weight="700">Go elsewhere.</text><rect x="47" y="190" width="286" height="190" rx="26" fill="#9bc4e8"/><circle cx="270" cy="246" r="70" fill="#ffdca3" opacity=".8"/><path d="M47 330 Q140 240 220 315 T333 280V380H47Z" fill="#5389a9"/><text x="70" y="420" fill="#17243d" font-family="Arial" font-size="18">Curated for you</text><g fill="#fff"><rect x="47" y="450" width="286" height="64" rx="18"/><rect x="47" y="530" width="286" height="64" rx="18"/><rect x="47" y="610" width="286" height="64" rx="18"/></g><g fill="#264162" font-family="Arial" font-size="14"><text x="72" y="488">A quiet weekend in Naxos</text><text x="72" y="568">Design hotels worth the detour</text><text x="72" y="648">A new way to see Cairo</text></g></g></svg>
